{"title":"Dumb And Dumber To 2014 CAMRip XviD MP3 Idiocracy","uid":11587270,"size":830851072,"categoryP":"video","categoryS":"movies","magnet":"?xt=urn:btih:2c704f2605f3c26d642e3ace4573a6bb413adf42&amp;dn=Dumb+And+Dumber+To+2014+CAMRip+XviD+MP3+Idiocracy&amp;tr=udp%3A%2F%2Ftracker.openbittorrent.com%3A80&amp;tr=udp%3A%2F%2Fopen.demonii.com%3A1337&amp;tr=udp%3A%2F%2Ftracker.coppersurfer.tk%3A6969&amp;tr=udp%3A%2F%2Fexodus.desync.com%3A6969","seeders":8,"leechers":1,"uploader":"Satafakap","files":-1,"time":1417188563,"description":"Synopsis / Plot\n\n20 years since their first adventure, Lloyd and Harry go on a road trip to find Harry's newly discovered daughter, who was given up for adoption.\n\nDirectors: Bobby Farrelly, Peter Farrelly\nWriters: Sean Anders (screenplay), Mike Cerrone, 4 more credits Â»\nStars: Jim Carrey, Jeff Daniels, Rob Riggle \n &lt;a href=&quot;\nhttp://www.imdb.com/title/tt2096672/&quot; rel=&quot;nofollow&quot; target=&quot;_NEW&quot;&gt;\nhttp://www.imdb.com/title/tt2096672/&lt;/a&gt;\n\nGeneral\n\nComplete name         : Dumb.And.Dumber.To.2014.CAMRip.XviD.MP3-Idiocracy.avi\nFormat                : AVI\nFormat/Info           : Audio Video Interleave\nFile size             : 781 MiB\nDuration              : 1h 42mn\nOverall bit rate      : 1 069 Kbps\nWriting application   : VirtualDubMod 1.5.10.3 | www.virtualdub-fr.org\nWriting library       : VirtualDubMod build 2550/release\nSource                : Dumb And Dumber To 2014 720p HDCAM FIRST ENG x264 Pimp4003\nSample                : Yes\n\nVideo\n\nID                                       : 0\nFormat                                   : MPEG-4 Visual\nFormat profile                           : Advanced Simple@L5\nFormat settings, BVOP                    : 2\nFormat settings, QPel                    : No\nFormat settings, GMC                     : No warppoints\nFormat settings, Matrix                  : Default (H.263)\nMuxing mode                              : Packed bitstream\nCodec ID                                 : XVID\nCodec ID/Hint                            : XviD\nDuration                                 : 1h 42mn\nBit rate                                 : 930 Kbps\nWidth                                    : 640 pixels\nHeight                                   : 268 pixels\nDisplay aspect ratio                     : 2.40:1\nFrame rate                               : 30.000 fps\nColor space                              : YUV\nChroma subsampling                       : 4:2:0\nBit depth                                : 8 bits\nScan type                                : Progressive\nCompression mode                         : Lossy\nBits/(Pixel*Frame)                       : 0.181\nStream size                              : 679 MiB (87%)\nWriting library                          : XviD 64\n\nAudio\n\nID                                       : 1\nFormat                                   : MPEG Audio\nFormat version                           : Version 1\nFormat profile                           : Layer 3\nCodec ID                                 : 55\nCodec ID/Hint                            : MP3\nDuration                                 : 1h 42mn\nBit rate mode                            : Constant\nBit rate                                 : 128 Kbps\nChannel(s)                               : 2 channels\nSampling rate                            : 48.0 KHz\nCompression mode                         : Lossy\nStream size                              : 93.5 MiB (12%)\nAlignment                                : Aligned on interleaves\nInterleave, duration                     : 33 ms (1.00 video frame)\nInterleave, preload duration             : 504 ms\nWriting library                          : LAME3.99r\nEncoding settings                        : -m s -V 4 -q 0 -lowpass 17 -b 128\n\nScreenshots:\n &lt;a href=&quot;\nhttp://i.imgur.com/RcQGZEp.jpg&quot; rel=&quot;nofollow&quot; target=&quot;_NEW&quot;&gt;\nhttp://i.imgur.com/RcQGZEp.jpg&lt;/a&gt;\n &lt;a href=&quot;\nhttp://i.imgur.com/gsZUiu1.jpg&quot; rel=&quot;nofollow&quot; target=&quot;_NEW&quot;&gt;\nhttp://i.imgur.com/gsZUiu1.jpg&lt;/a&gt;\n &lt;a href=&quot;\nhttp://i.imgur.com/sskADW2.jpg&quot; rel=&quot;nofollow&quot; target=&quot;_NEW&quot;&gt;\nhttp://i.imgur.com/sskADW2.jpg&lt;/a&gt;\n &lt;a href=&quot;\nhttp://i.imgur.com/mbe14tq.jpg&quot; rel=&quot;nofollow&quot; target=&quot;_NEW&quot;&gt;\nhttp://i.imgur.com/mbe14tq.jpg&lt;/a&gt;\n &lt;a href=&quot;\nhttp://i.imgur.com/6z3gUL5.jpg&quot; rel=&quot;nofollow&quot; target=&quot;_NEW&quot;&gt;\nhttp://i.imgur.com/6z3gUL5.jpg&lt;/a&gt;","torrent":{"xt":"urn:btih:2c704f2605f3c26d642e3ace4573a6bb413adf42","amp;dn":"Dumb+And+Dumber+To+2014+CAMRip+XviD+MP3+Idiocracy","amp;tr":["udp%3A%2F%2Ftracker.openbittorrent.com%3A80","udp%3A%2F%2Fopen.demonii.com%3A1337","udp%3A%2F%2Ftracker.coppersurfer.tk%3A6969","udp%3A%2F%2Fexodus.desync.com%3A6969"],"infoHash":"2c704f2605f3c26d642e3ace4573a6bb413adf42","infoHashBuffer":{"type":"Buffer","data":[44,112,79,38,5,243,194,109,100,46,58,206,69,115,166,187,65,58,223,66]},"announce":[],"urlList":[]}}